<?xml version="1.0" encoding="UTF-8"?>
<svg version="1.1" xmlns="http://www.w3.org/2000/svg" width="512" height="512">
<path d="M0 0 C1.66675781 -0.05027344 1.66675781 -0.05027344 3.3671875 -0.1015625 C14.00340639 1.95492057 21.47233557 10.3948192 28.81347656 17.79589844 C29.94723699 18.92422753 31.08184413 20.05170637 32.21722412 21.17840576 C35.27587974 24.21894554 38.32189028 27.27185741 41.3651247 30.32782269 C44.56469231 33.5375791 47.77407867 36.73749474 50.98187256 39.93902588 C56.36524344 45.3151374 61.74016674 50.69958636 67.11035156 56.08886719 C73.30248813 62.30276906 79.50890212 68.50213048 85.72292733 74.69413733 C91.07580667 80.02881382 96.420788 85.37130953 101.75934958 90.72031426 C104.93997499 93.90714777 108.12317444 97.09128395 111.31354523 100.26836395 C114.31374303 103.2569326 117.30384575 106.25526008 120.28672028 109.26111603 C121.37727811 110.35692339 122.47118058 111.44941485 123.56880188 112.53814697 C138.01359879 126.87678515 138.01359879 126.87678515 139.8515625 136.3828125 C139.60952338 144.40734039 139.08095689 150.3529497 133.51171875 156.3671875 C127.03837511 162.36687185 120.64561051 162.91691925 112.1328125 162.8203125 C110.71390213 162.81606766 110.71390213 162.81606766 109.2663269 162.81173706 C106.26075306 162.80058932 103.25548298 162.77549465 100.25 162.75 C98.20573349 162.73996321 96.16146228 162.73083859 94.1171875 162.72265625 C89.11967556 162.70066767 84.1223892 162.66617509 79.125 162.625 C79.13191345 163.83399035 79.13191345 163.83399035 79.13896656 165.06740475 C79.24949136 184.6984143 79.33217874 204.32936157 79.38406086 223.96061611 C79.40981896 233.45424527 79.44492363 242.94766646 79.50219727 252.44116211 C79.55210563 260.71777507 79.58430841 268.99423737 79.59544247 277.27099663 C79.60194869 281.65167875 79.61718982 286.03192996 79.65365028 290.41247368 C79.68772752 294.54034299 79.69802953 298.66760617 79.69053841 302.7956028 C79.69190775 304.30604731 79.70177065 305.81651325 79.72102737 307.32683563 C79.82246931 315.6974948 79.66398225 322.87666391 74.125 329.625 C69.03724928 334.38592717 63.71105829 336.29295757 56.75 336.9375 C46.32415278 336.03872007 40.97825997 331.31143519 33.83984375 323.92578125 C32.88996162 322.96468663 31.93872977 322.00492431 30.98622131 321.0464325 C28.50184729 318.53932152 26.03603664 316.01472103 23.57385254 313.48583984 C21.0505828 310.90081817 18.50990349 308.33302985 15.97070312 305.76367188 C11.00511195 300.73403627 6.05895663 295.68568817 1.125 290.625 C-2.20219152 292.06880558 -4.32830196 293.86209227 -6.84228516 296.46044922 C-7.61053619 297.24821747 -8.37878723 298.03598572 -9.1703186 298.84762573 C-9.99325409 299.69970612 -10.81618958 300.5517865 -11.6640625 301.4296875 C-13.42778187 303.22845656 -15.1921248 305.0266144 -16.95703125 306.82421875 C-19.72840307 309.65736182 -22.49491606 312.49474458 -25.25048828 315.34326172 C-27.91630241 318.09419063 -30.60102649 320.8254913 -33.2890625 323.5546875 C-34.0998526 324.40271942 -34.9106427 325.25075134 -35.7460022 326.1244812 C-41.84958682 332.28163413 -47.73051609 335.99322127 -56.4375 337.0625 C-64.30333357 336.06139391 -70.58470337 333.69581991 -75.875 327.625 C-79.68751113 321.3166705 -80.46126561 315.51341988 -80.37109375 308.26171875 C-80.37254898 307.307314 -80.37400421 306.35290924 -80.37550354 305.36958313 C-80.37385452 303.36867188 -80.36240622 301.36774662 -80.34155273 299.36694336 C-80.31241277 296.30332943 -80.32100158 293.24142954 -80.33398438 290.17773438 C-80.32775147 288.2265541 -80.31936404 286.27537926 -80.30859375 284.32421875 C-80.31152939 283.41065109 -80.31446503 282.49708344 -80.31748962 281.55583191 C-80.26428237 277.98372196 -80.21203182 275.33083609 -78.66040039 272.08129883 C-76.875 270.625 -76.875 270.625 -71.875 269.625 C-71.875 265.005 -71.875 260.385 -71.875 255.625 C-73.525 255.295 -75.175 254.965 -76.875 254.625 C-79.75146916 252.1692355 -79.87725256 250.60113693 -80.23576355 246.80316162 C-80.24444404 245.2330418 -80.23652129 243.66277755 -80.21557617 242.09277344 C-80.21623329 240.80442596 -80.21623329 240.80442596 -80.21690369 239.49005127 C-80.21481572 236.65459362 -80.1914843 233.8197292 -80.16796875 230.984375 C-80.16237282 229.01711348 -80.15810271 227.04984777 -80.15510559 225.08258057 C-80.14365657 219.90723102 -80.11418878 214.73213444 -80.08099365 209.55688477 C-80.05029408 204.27493715 -80.03660049 198.99294863 -80.02148438 193.7109375 C-79.98931923 183.34884725 -79.93812208 172.98694467 -79.875 162.625 C-81.13570313 162.64594727 -82.39640625 162.66689453 -83.6953125 162.68847656 C-88.39913451 162.76120087 -93.1029074 162.80691736 -97.80712891 162.84472656 C-99.83813857 162.86476836 -101.86909106 162.89200947 -103.89990234 162.92675781 C-106.82924556 162.97560414 -109.757822 162.99804343 -112.6875 163.015625 C-113.58678223 163.03627014 -114.48606445 163.05691528 -115.41259766 163.07818604 C-122.50336702 163.08067624 -127.71127464 161.34778803 -133.1171875 156.6953125 C-138.25820884 150.57036363 -140.52781095 145.48602544 -140.21672344 137.37905312 C-138.90867696 126.8371088 -130.57365238 119.61280235 -123.41870117 112.53759766 C-122.24764981 111.36139927 -121.07767045 110.18413276 -119.90867615 109.00588989 C-116.75059886 105.82939363 -113.57713295 102.66871016 -110.39999175 99.5112958 C-107.06737988 96.19514453 -103.74745947 92.86632711 -100.4256134 89.53939819 C-94.84842068 83.95769374 -89.26115317 78.38623221 -83.66772461 72.82080078 C-77.21091494 66.39606219 -70.77031579 59.95541583 -64.3381502 53.50601161 C-58.13506971 47.28704331 -51.92071589 41.07945881 -45.70116615 34.87696457 C-43.06091988 32.24357158 -40.4246435 29.6062977 -37.79152489 26.96577835 C-34.68895695 23.85552412 -31.57660403 20.75539768 -28.45656776 17.66267014 C-27.3163854 16.52934715 -26.1795422 15.39265282 -25.04640198 14.25228882 C-10.94942969 0.0758621 -10.94942969 0.0758621 0 0 Z " fill="#13CBFE" transform="translate(342.875,-0.625)"/>
<path d="M0 0 C2.57445339 1.77141288 4.94926438 3.63275213 7 6 C7 6.66 7 7.32 7 8 C7.99 8.33 8.98 8.66 10 9 C10 9.66 10 10.32 10 11 C10.66 11 11.32 11 12 11 C13.4375 12.49609375 13.4375 12.49609375 15 14.4375 C17.14525044 17.15188238 17.14525044 17.15188238 20 19 C20 19.66 20 20.32 20 21 C20.56170898 21.2357373 21.12341797 21.47147461 21.70214844 21.71435547 C24.54335036 23.30400372 26.47807285 25.25343276 28.765625 27.5703125 C29.65507812 28.46621094 30.54453125 29.36210937 31.4609375 30.28515625 C32.84152344 31.69087891 32.84152344 31.69087891 34.25 33.125 C35.19484856 34.07988637 36.14015633 35.03431859 37.0859375 35.98828125 C39.39518338 38.32109087 41.69963203 40.65844086 44 43 C49.40491401 38.51261819 54.32425042 33.72512638 59.20703125 28.6796875 C60.77852868 27.07606975 62.35081886 25.47322855 63.92382812 23.87109375 C66.37329646 21.3722776 68.81787167 18.8694405 71.24926758 16.35302734 C73.6170184 13.90610433 76.00383982 11.47917554 78.39453125 9.0546875 C79.10841507 8.30669891 79.82229889 7.55871033 80.55781555 6.78805542 C86.3557653 0.959504 92.32850931 -2.42630816 100.5625 -3.4375 C108.45637602 -2.43282487 114.66811012 -0.05373683 120 6 C124.97853383 13.48268567 124.5432315 21.71701323 124.45410156 30.34204102 C124.45297159 31.8802945 124.45360986 33.41855013 124.45587158 34.95680237 C124.45701385 39.10922129 124.43358426 43.261173 124.40557575 47.41348386 C124.38048022 51.76162898 124.3782137 56.10978618 124.37347412 60.45799255 C124.36106821 68.68138313 124.32827907 76.90455965 124.28807616 85.12785619 C124.24328401 94.49424093 124.22135273 103.86063618 124.20129442 113.22710145 C124.15954418 132.48485541 124.08923876 151.74241046 124 171 C125.26070312 170.97905273 126.52140625 170.95810547 127.8203125 170.93652344 C132.52413451 170.86379913 137.2279074 170.81808264 141.93212891 170.78027344 C143.96313857 170.76023164 145.99409106 170.73299053 148.02490234 170.69824219 C150.95424556 170.64939586 153.882822 170.62695657 156.8125 170.609375 C157.71178223 170.58872986 158.61106445 170.56808472 159.53759766 170.54681396 C166.62836702 170.54432376 171.83627464 172.27721197 177.2421875 176.9296875 C182.38320884 183.05463637 184.65281095 188.13897456 184.34172344 196.24594688 C183.03367696 206.7878912 174.69865238 214.01219765 167.54370117 221.08740234 C166.37264981 222.26360073 165.20267045 223.44086724 164.03367615 224.61911011 C160.87559886 227.79560637 157.70213295 230.95628984 154.52499175 234.1137042 C151.19237988 237.42985547 147.87245947 240.75867289 144.5506134 244.08560181 C138.97342068 249.66730626 133.38615317 255.23876779 127.79272461 260.80419922 C121.33591494 267.22893781 114.89531579 273.66958417 108.4631502 280.11898839 C102.26006971 286.33795669 96.04571589 292.54554119 89.82616615 298.74803543 C87.18591988 301.38142842 84.5496435 304.0187023 81.91652489 306.65922165 C78.81395695 309.76947588 75.70160403 312.86960232 72.58156776 315.96232986 C71.4413854 317.09565285 70.3045422 318.23234718 69.17140198 319.37271118 C55.07442969 333.5491379 55.07442969 333.5491379 44.125 333.625 C43.01382813 333.65851563 41.90265625 333.69203125 40.7578125 333.7265625 C29.76355383 331.60085344 22.30329639 322.82748009 14.8125 315.125 C13.76195265 314.06292601 12.71052414 313.00172288 11.65820312 311.94140625 C7.61125324 307.84150267 3.62141688 303.74352116 -0.12586975 299.3671875 C-4.1627843 294.74389058 -8.4639348 290.42445261 -12.82519531 286.10888672 C-13.67971283 285.25904205 -14.53423035 284.40919739 -15.41464233 283.53359985 C-17.73506293 281.22633401 -20.05763388 278.92125583 -22.380723 276.61667776 C-24.82171091 274.19324885 -27.25856482 271.76567279 -29.69549561 269.33816528 C-37.97754916 261.08938141 -46.26389166 252.84493889 -54.56054688 244.61083984 C-59.15511443 240.05083055 -63.74427542 235.48545208 -68.32752681 230.91406834 C-70.74743508 228.50091365 -73.17008182 226.09065726 -75.59952545 223.68709946 C-78.30405965 221.00901968 -80.99919122 218.32180349 -83.69238281 215.63232422 C-84.49346466 214.84359924 -85.29454651 214.05487427 -86.11990356 213.24224854 C-92.01783234 207.32280776 -95.42787139 202.77149421 -95.4375 194.125 C-95.25925017 187.06927773 -94.19765525 182.45315797 -89.38671875 177.2578125 C-82.91337511 171.25812815 -76.52061051 170.70808075 -68.0078125 170.8046875 C-67.06187225 170.8075174 -66.11593201 170.81034729 -65.1413269 170.81326294 C-62.13575306 170.82441068 -59.13048298 170.84950535 -56.125 170.875 C-54.08073349 170.88503679 -52.03646228 170.89416141 -49.9921875 170.90234375 C-44.99467556 170.92433233 -39.9973892 170.95882491 -35 171 C-35.01665459 169.56633087 -35.01665459 169.56633087 -35.03364563 168.10369873 C-35.13498011 159.09877043 -35.20994522 150.09395771 -35.25906086 141.08858871 C-35.28516082 136.45871986 -35.32056571 131.82931108 -35.37719727 127.19970703 C-35.43150349 122.7322665 -35.46141753 118.26526861 -35.47438622 113.7975235 C-35.48362867 112.09261353 -35.50167732 110.38772793 -35.52865028 108.68300629 C-35.5649241 106.29562441 -35.56994634 103.91007382 -35.56762695 101.52246094 C-35.58560333 100.81683517 -35.60357971 100.11120941 -35.62210083 99.38420105 C-35.58268554 95.637323 -35.24968149 94.25586295 -32.58952332 91.52984619 C-30 90 -30 90 -28 90 C-28 85.38 -28 80.76 -28 76 C-29.65 75.67 -31.3 75.34 -33 75 C-35.26302594 71.60546108 -35.26457996 70.37271243 -35.30639648 66.38623047 C-35.32238388 65.23428192 -35.33837128 64.08233337 -35.35484314 62.89547729 C-35.36020584 61.64864166 -35.36556854 60.40180603 -35.37109375 59.1171875 C-35.38463646 57.19122238 -35.38463646 57.19122238 -35.39845276 55.22634888 C-35.41494582 52.50438936 -35.42264242 49.78255279 -35.42553711 47.06054688 C-35.43089755 43.59375486 -35.46847564 40.12814115 -35.51428127 36.66168022 C-35.55143301 33.33435765 -35.55257867 30.00721009 -35.55859375 26.6796875 C-35.57812607 25.44499725 -35.59765839 24.21030701 -35.61778259 22.9382019 C-35.57913349 15.49253377 -34.70353795 9.94664469 -30 4 C-21.48954904 -3.99882944 -10.37780167 -4.94267883 0 0 Z " fill="#FE8A46" transform="translate(125,179)"/>
<path d="M0 0 C1.66675781 -0.05027344 1.66675781 -0.05027344 3.3671875 -0.1015625 C14.00340639 1.95492057 21.47233557 10.3948192 28.81347656 17.79589844 C29.94723699 18.92422753 31.08184413 20.05170637 32.21722412 21.17840576 C35.27587974 24.21894554 38.32189028 27.27185741 41.3651247 30.32782269 C44.56469231 33.5375791 47.77407867 36.73749474 50.98187256 39.93902588 C56.36524344 45.3151374 61.74016674 50.69958636 67.11035156 56.08886719 C73.30248813 62.30276906 79.50890212 68.50213048 85.72292733 74.69413733 C91.07580667 80.02881382 96.420788 85.37130953 101.75934958 90.72031426 C104.93997499 93.90714777 108.12317444 97.09128395 111.31354523 100.26836395 C114.31374303 103.2569326 117.30384575 106.25526008 120.28672028 109.26111603 C121.37727811 110.35692339 122.47118058 111.44941485 123.56880188 112.53814697 C138.01359879 126.87678515 138.01359879 126.87678515 139.8515625 136.3828125 C139.60952338 144.40734039 139.08095689 150.3529497 133.51171875 156.3671875 C127.03837511 162.36687185 120.64561051 162.91691925 112.1328125 162.8203125 C110.71390213 162.81606766 110.71390213 162.81606766 109.2663269 162.81173706 C106.26075306 162.80058932 103.25548298 162.77549465 100.25 162.75 C98.20573349 162.73996321 96.16146228 162.73083859 94.1171875 162.72265625 C89.11967556 162.70066767 84.1223892 162.66617509 79.125 162.625 C79.13191345 163.83399035 79.13191345 163.83399035 79.13896656 165.06740475 C79.24949136 184.6984143 79.33217874 204.32936157 79.38406086 223.96061611 C79.40981896 233.45424527 79.44492363 242.94766646 79.50219727 252.44116211 C79.55210563 260.71777507 79.58430841 268.99423737 79.59544247 277.27099663 C79.60194869 281.65167875 79.61718982 286.03192996 79.65365028 290.41247368 C79.68772752 294.54034299 79.69802953 298.66760617 79.69053841 302.7956028 C79.69190775 304.30604731 79.70177065 305.81651325 79.72102737 307.32683563 C79.82246931 315.6974948 79.66398225 322.87666391 74.125 329.625 C69.03724928 334.38592717 63.71105829 336.29295757 56.75 336.9375 C46.32415278 336.03872007 40.97825997 331.31143519 33.83984375 323.92578125 C32.88996162 322.96468663 31.93872977 322.00492431 30.98622131 321.0464325 C28.50184729 318.53932152 26.03603664 316.01472103 23.57385254 313.48583984 C21.0505828 310.90081817 18.50990349 308.33302985 15.97070312 305.76367188 C11.00511195 300.73403627 6.05895663 295.68568817 1.125 290.625 C-2.20219152 292.06880558 -4.32830196 293.86209227 -6.84228516 296.46044922 C-7.61053619 297.24821747 -8.37878723 298.03598572 -9.1703186 298.84762573 C-9.99325409 299.69970612 -10.81618958 300.5517865 -11.6640625 301.4296875 C-13.42778187 303.22845656 -15.1921248 305.0266144 -16.95703125 306.82421875 C-19.72840307 309.65736182 -22.49491606 312.49474458 -25.25048828 315.34326172 C-27.91630241 318.09419063 -30.60102649 320.8254913 -33.2890625 323.5546875 C-34.0998526 324.40271942 -34.9106427 325.25075134 -35.7460022 326.1244812 C-41.84958682 332.28163413 -47.73051609 335.99322127 -56.4375 337.0625 C-64.30333357 336.06139391 -70.58470337 333.69581991 -75.875 327.625 C-79.68751113 321.3166705 -80.46126561 315.51341988 -80.37109375 308.26171875 C-80.37254898 307.307314 -80.37400421 306.35290924 -80.37550354 305.36958313 C-80.37385452 303.36867188 -80.36240622 301.36774662 -80.34155273 299.36694336 C-80.31241277 296.30332943 -80.32100158 293.24142954 -80.33398438 290.17773438 C-80.32775147 288.2265541 -80.31936404 286.27537926 -80.30859375 284.32421875 C-80.31152939 283.41065109 -80.31446503 282.49708344 -80.31748962 281.55583191 C-80.22382778 275.26777201 -80.22382778 275.26777201 -78.49243164 272.07739258 C-76.24552863 270.05975847 -74.8976243 269.69529359 -71.875 269.625 C-66.675 271.825 -66.675 271.825 -64.875 273.625 C-64.7640752 276.67915496 -64.71333877 279.71450265 -64.69921875 282.76953125 C-64.67601793 284.66212047 -64.65190049 286.55469863 -64.62695312 288.44726562 C-64.59183214 291.44286456 -64.5624975 294.43805814 -64.54907227 297.43383789 C-64.53360809 300.31707367 -64.49340318 303.19911136 -64.44921875 306.08203125 C-64.45112717 306.97694778 -64.45303558 307.87186432 -64.45500183 308.79389954 C-64.38362032 313.83512061 -64.38362032 313.83512061 -62.01098633 318.1784668 C-59.90093675 319.78563472 -59.90093675 319.78563472 -57.125 320.3125 C-48.77570155 318.54630225 -41.88368031 308.66694581 -36.15234375 302.75390625 C-34.29712883 300.86172979 -32.44106549 298.97041958 -30.58398438 297.08007812 C-27.68223221 294.12431738 -24.78605264 291.16363473 -21.90795898 288.18481445 C-20.01575194 286.22714428 -18.1145871 284.27909607 -16.20228577 282.34104919 C-14.40967283 280.52407524 -12.63043334 278.6937859 -10.86643982 276.84901428 C-4.97374408 270.92914262 -4.97374408 270.92914262 -0.27563477 269.62866211 C4.72390347 271.0934561 7.51733653 273.96261015 11.125 277.625 C12.24867477 278.74175613 12.24867477 278.74175613 13.39505005 279.881073 C15.90086789 282.39902337 18.37527225 284.94532671 20.84765625 287.49609375 C22.70287117 289.38827021 24.55893451 291.27958042 26.41601562 293.16992188 C29.31776779 296.12568262 32.21394736 299.08636527 35.09204102 302.06518555 C36.98424806 304.02285572 38.8854129 305.97090393 40.79771423 307.90895081 C42.59032717 309.72592476 44.36956666 311.5562141 46.13356018 313.40098572 C50.83905778 318.21429031 50.83905778 318.21429031 57.03686523 320.43383789 C60.12118547 319.89838137 60.12118547 319.89838137 61.79477024 317.99195862 C63.56826648 314.83626902 63.49857645 312.55989376 63.49681091 308.94482422 C63.50063548 308.2745262 63.50446004 307.60422817 63.5084005 306.91361809 C63.5176824 304.66876238 63.50569667 302.42452394 63.49389648 300.1796875 C63.49636447 298.56984196 63.50020287 296.95999802 63.50531006 295.35015869 C63.51364914 291.8841212 63.51283967 288.41824799 63.50512505 284.95220947 C63.49355078 279.47310774 63.50569687 273.99421779 63.52174377 268.51513672 C63.55795114 254.90699539 63.56416583 241.29885893 63.56164551 227.69067383 C63.55993562 217.11373463 63.5670149 206.53696805 63.60162407 195.96007729 C63.61844402 190.51178787 63.61660143 185.06391901 63.60080135 179.6156311 C63.59501406 176.22837324 63.60572687 172.84131585 63.62104797 169.45409393 C63.62478159 167.88191577 63.62164484 166.30970421 63.61117744 164.73755646 C63.59784836 162.59292065 63.6089779 160.44975195 63.62620544 158.30517578 C63.62599616 157.10466583 63.62578688 155.90415588 63.62557125 154.66726685 C64.22470537 151.01764539 65.21733429 149.83949111 68.125 147.625 C70.51525879 147.13293457 70.51525879 147.13293457 73.19726562 147.14257812 C74.70903381 147.13236633 74.70903381 147.13236633 76.25134277 147.12194824 C77.87489685 147.13892761 77.87489685 147.13892761 79.53125 147.15625 C80.64810181 147.14920044 81.76495361 147.14215088 82.91564941 147.1348877 C87.69502518 147.10533694 92.4739962 147.12205705 97.25341797 147.13427734 C100.74211195 147.13665222 104.23013867 147.11577009 107.71875 147.09375 C109.34230408 147.11072937 109.34230408 147.11072937 110.99865723 147.12805176 C112.51042542 147.11783997 112.51042542 147.11783997 114.05273438 147.10742188 C115.38032776 147.11219543 115.38032776 147.11219543 116.73474121 147.11706543 C120.01615478 146.44154436 121.18229401 145.33171207 123.125 142.625 C123.64139272 138.83928658 123.52029965 137.18260727 121.28608608 134.03103924 C120.41763089 133.16032189 119.5491757 132.28960455 118.65440369 131.39250183 C118.17339992 130.90213812 117.69239615 130.4117744 117.1968165 129.90655118 C115.58262609 128.26844364 113.947851 126.65260375 112.31225586 125.03588867 C111.14996498 123.86546691 109.98895424 122.69377271 108.82913208 121.52090454 C105.67537542 118.33977879 102.5029127 115.17794495 99.32595897 112.02000594 C96.00369369 108.71292589 92.69608687 105.39123771 89.38612366 102.07185364 C83.82391547 96.49872645 78.24916936 90.93837587 72.66723633 85.38500977 C66.21554313 78.96595456 59.78572872 72.52559106 53.36688513 66.07370013 C47.85513663 60.53471366 42.33176829 55.00751868 36.79854113 49.48998815 C33.4939098 46.19470747 30.1934576 42.89551568 26.90342522 39.58565331 C23.80855722 36.47343884 20.69935178 33.37629616 17.57852554 30.29011917 C16.43616798 29.15568835 15.29887293 28.01613309 14.16711235 26.87112999 C12.61971299 25.30730459 11.05496064 23.76317693 9.48448181 22.22257996 C8.61338744 21.35374774 7.74229307 20.48491552 6.8448019 19.58975506 C3.49416361 17.16929071 1.23911288 16.67411869 -2.875 16.625 C-5.00202622 17.58611189 -5.00202622 17.58611189 -6.61315918 19.37818909 C-7.28592392 20.03174944 -7.95868866 20.68530979 -8.65184021 21.358675 C-9.38548294 22.10656225 -10.11912567 22.8544495 -10.875 23.625 C-11.69996475 24.42229963 -12.5249295 25.21959927 -13.37489319 26.04105949 C-16.29403262 28.86312664 -19.18102971 31.7155453 -22.06445312 34.57397461 C-23.16892412 35.66560619 -24.27354254 36.75708862 -25.3782959 37.84843445 C-35.38716203 47.7422096 -45.36736897 57.66511306 -55.34101105 67.59438229 C-62.70488458 74.92492897 -70.0816953 82.24192747 -77.47596025 89.54182047 C-82.68745824 94.68904239 -87.88360424 99.85144917 -93.0686717 105.02529341 C-96.1617425 108.11080564 -99.26124906 111.18913876 -102.37757874 114.25117302 C-105.30408597 117.12727181 -108.21114094 120.02168468 -111.10438538 122.93123055 C-112.16813275 123.99437413 -113.23874254 125.05070268 -114.31661987 126.09951782 C-120.94346677 132.05844796 -120.94346677 132.05844796 -123.69714355 140.12989807 C-123.09571292 143.48660831 -123.09571292 143.48660831 -121.68492126 145.60095215 C-119.30538121 146.94728855 -117.64975234 147.00343641 -114.91625977 147.00976562 C-113.90833878 147.01987671 -112.90041779 147.02998779 -111.86195374 147.04040527 C-110.77442307 147.03738403 -109.6868924 147.03436279 -108.56640625 147.03125 C-106.88900612 147.04750427 -106.88900612 147.04750427 -105.17771912 147.06408691 C-101.59758733 147.09842496 -98.01777503 147.11395792 -94.4375 147.125 C-89.7301599 147.13953956 -85.02353673 147.17317615 -80.31640625 147.21875 C-79.23089981 147.21572876 -78.14539337 147.21270752 -77.0269928 147.20959473 C-76.01591965 147.21970581 -75.0048465 147.22981689 -73.96313477 147.24023438 C-72.63101707 147.24331604 -72.63101707 147.24331604 -71.27198792 147.24645996 C-68.1168133 147.74473528 -66.93793561 148.13223108 -64.875 150.625 C-64.26032567 153.80078213 -64.31885059 156.94751513 -64.34155273 160.17358398 C-64.32862938 161.64226929 -64.32862938 161.64226929 -64.31544495 163.140625 C-64.29270111 166.38438181 -64.29953973 169.62728055 -64.30859375 172.87109375 C-64.30336168 175.12167113 -64.29708674 177.3722463 -64.28981018 179.62281799 C-64.27939022 184.34313259 -64.28399016 189.06314604 -64.29858398 193.78344727 C-64.31576841 199.8378555 -64.29228828 205.89131446 -64.25709438 211.94561672 C-64.23515143 216.59444998 -64.2365545 221.24305506 -64.2448597 225.8919239 C-64.24568102 228.12428897 -64.23878322 230.3566705 -64.22408867 232.58898735 C-64.20670194 235.7089283 -64.22113761 238.82715027 -64.24389648 241.94702148 C-64.22635818 243.33501701 -64.22635818 243.33501701 -64.20846558 244.75105286 C-64.30134334 250.99718406 -64.30134334 250.99718406 -67.22303772 254.19471741 C-70.48746288 255.95531955 -72.22371643 256.32418196 -75.875 255.625 C-79.04379123 252.69206659 -79.82825326 251.00810407 -80.35601807 246.6829071 C-80.36755421 245.11503752 -80.35711129 243.54690986 -80.32910156 241.97924805 C-80.32968567 241.1202037 -80.33026978 240.26115936 -80.33087158 239.37608337 C-80.3280921 236.54587945 -80.29700683 233.71673794 -80.265625 230.88671875 C-80.25816212 228.92088903 -80.25246941 226.95505186 -80.24847412 224.98921204 C-80.23322153 219.82200483 -80.19394275 214.6552493 -80.1496582 209.48822021 C-80.10869754 204.21291209 -80.09046139 198.93753078 -80.0703125 193.66210938 C-80.0274483 183.3162081 -79.95920133 172.97064165 -79.875 162.625 C-81.13570313 162.64594727 -82.39640625 162.66689453 -83.6953125 162.68847656 C-88.39913451 162.76120087 -93.1029074 162.80691736 -97.80712891 162.84472656 C-99.83813857 162.86476836 -101.86909106 162.89200947 -103.89990234 162.92675781 C-106.82924556 162.97560414 -109.757822 162.99804343 -112.6875 163.015625 C-113.58678223 163.03627014 -114.48606445 163.05691528 -115.41259766 163.07818604 C-122.50336702 163.08067624 -127.71127464 161.34778803 -133.1171875 156.6953125 C-138.25820884 150.57036363 -140.52781095 145.48602544 -140.21672344 137.37905312 C-138.90867696 126.8371088 -130.57365238 119.61280235 -123.41870117 112.53759766 C-122.24764981 111.36139927 -121.07767045 110.18413276 -119.90867615 109.00588989 C-116.75059886 105.82939363 -113.57713295 102.66871016 -110.39999175 99.5112958 C-107.06737988 96.19514453 -103.74745947 92.86632711 -100.4256134 89.53939819 C-94.84842068 83.95769374 -89.26115317 78.38623221 -83.66772461 72.82080078 C-77.21091494 66.39606219 -70.77031579 59.95541583 -64.3381502 53.50601161 C-58.13506971 47.28704331 -51.92071589 41.07945881 -45.70116615 34.87696457 C-43.06091988 32.24357158 -40.4246435 29.6062977 -37.79152489 26.96577835 C-34.68895695 23.85552412 -31.57660403 20.75539768 -28.45656776 17.66267014 C-27.3163854 16.52934715 -26.1795422 15.39265282 -25.04640198 14.25228882 C-10.94942969 0.0758621 -10.94942969 0.0758621 0 0 Z " fill="#000101" transform="translate(342.875,-0.625)"/>
<path d="M0 0 C2.57445339 1.77141288 4.94926438 3.63275213 7 6 C7 6.66 7 7.32 7 8 C7.99 8.33 8.98 8.66 10 9 C10 9.66 10 10.32 10 11 C10.66 11 11.32 11 12 11 C13.4375 12.49609375 13.4375 12.49609375 15 14.4375 C17.14525044 17.15188238 17.14525044 17.15188238 20 19 C20 19.66 20 20.32 20 21 C20.56170898 21.2357373 21.12341797 21.47147461 21.70214844 21.71435547 C24.54335036 23.30400372 26.47807285 25.25343276 28.765625 27.5703125 C29.65507812 28.46621094 30.54453125 29.36210937 31.4609375 30.28515625 C32.84152344 31.69087891 32.84152344 31.69087891 34.25 33.125 C35.19484856 34.07988637 36.14015633 35.03431859 37.0859375 35.98828125 C39.39518338 38.32109087 41.69963203 40.65844086 44 43 C49.40491401 38.51261819 54.32425042 33.72512638 59.20703125 28.6796875 C60.77852868 27.07606975 62.35081886 25.47322855 63.92382812 23.87109375 C66.37329646 21.3722776 68.81787167 18.8694405 71.24926758 16.35302734 C73.6170184 13.90610433 76.00383982 11.47917554 78.39453125 9.0546875 C79.10841507 8.30669891 79.82229889 7.55871033 80.55781555 6.78805542 C86.3557653 0.959504 92.32850931 -2.42630816 100.5625 -3.4375 C108.45637602 -2.43282487 114.66811012 -0.05373683 120 6 C124.97853383 13.48268567 124.5432315 21.71701323 124.45410156 30.34204102 C124.45297159 31.8802945 124.45360986 33.41855013 124.45587158 34.95680237 C124.45701385 39.10922129 124.43358426 43.261173 124.40557575 47.41348386 C124.38048022 51.76162898 124.3782137 56.10978618 124.37347412 60.45799255 C124.36106821 68.68138313 124.32827907 76.90455965 124.28807616 85.12785619 C124.24328401 94.49424093 124.22135273 103.86063618 124.20129442 113.22710145 C124.15954418 132.48485541 124.08923876 151.74241046 124 171 C125.26070312 170.97905273 126.52140625 170.95810547 127.8203125 170.93652344 C132.52413451 170.86379913 137.2279074 170.81808264 141.93212891 170.78027344 C143.96313857 170.76023164 145.99409106 170.73299053 148.02490234 170.69824219 C150.95424556 170.64939586 153.882822 170.62695657 156.8125 170.609375 C157.71178223 170.58872986 158.61106445 170.56808472 159.53759766 170.54681396 C166.62836702 170.54432376 171.83627464 172.27721197 177.2421875 176.9296875 C182.38320884 183.05463637 184.65281095 188.13897456 184.34172344 196.24594688 C183.03367696 206.7878912 174.69865238 214.01219765 167.54370117 221.08740234 C166.37264981 222.26360073 165.20267045 223.44086724 164.03367615 224.61911011 C160.87559886 227.79560637 157.70213295 230.95628984 154.52499175 234.1137042 C151.19237988 237.42985547 147.87245947 240.75867289 144.5506134 244.08560181 C138.97342068 249.66730626 133.38615317 255.23876779 127.79272461 260.80419922 C121.33591494 267.22893781 114.89531579 273.66958417 108.4631502 280.11898839 C102.26006971 286.33795669 96.04571589 292.54554119 89.82616615 298.74803543 C87.18591988 301.38142842 84.5496435 304.0187023 81.91652489 306.65922165 C78.81395695 309.76947588 75.70160403 312.86960232 72.58156776 315.96232986 C71.4413854 317.09565285 70.3045422 318.23234718 69.17140198 319.37271118 C55.07442969 333.5491379 55.07442969 333.5491379 44.125 333.625 C43.01382813 333.65851563 41.90265625 333.69203125 40.7578125 333.7265625 C29.76355383 331.60085344 22.30329639 322.82748009 14.8125 315.125 C13.76195265 314.06292601 12.71052414 313.00172288 11.65820312 311.94140625 C7.61125324 307.84150267 3.62141688 303.74352116 -0.12586975 299.3671875 C-4.1627843 294.74389058 -8.4639348 290.42445261 -12.82519531 286.10888672 C-13.67971283 285.25904205 -14.53423035 284.40919739 -15.41464233 283.53359985 C-17.73506293 281.22633401 -20.05763388 278.92125583 -22.380723 276.61667776 C-24.82171091 274.19324885 -27.25856482 271.76567279 -29.69549561 269.33816528 C-37.97754916 261.08938141 -46.26389166 252.84493889 -54.56054688 244.61083984 C-59.15511443 240.05083055 -63.74427542 235.48545208 -68.32752681 230.91406834 C-70.74743508 228.50091365 -73.17008182 226.09065726 -75.59952545 223.68709946 C-78.30405965 221.00901968 -80.99919122 218.32180349 -83.69238281 215.63232422 C-84.49346466 214.84359924 -85.29454651 214.05487427 -86.11990356 213.24224854 C-92.01783234 207.32280776 -95.42787139 202.77149421 -95.4375 194.125 C-95.25925017 187.06927773 -94.19765525 182.45315797 -89.38671875 177.2578125 C-82.91337511 171.25812815 -76.52061051 170.70808075 -68.0078125 170.8046875 C-67.06187225 170.8075174 -66.11593201 170.81034729 -65.1413269 170.81326294 C-62.13575306 170.82441068 -59.13048298 170.84950535 -56.125 170.875 C-54.08073349 170.88503679 -52.03646228 170.89416141 -49.9921875 170.90234375 C-44.99467556 170.92433233 -39.9973892 170.95882491 -35 171 C-35.01665459 169.56633087 -35.01665459 169.56633087 -35.03364563 168.10369873 C-35.13498011 159.09877043 -35.20994522 150.09395771 -35.25906086 141.08858871 C-35.28516082 136.45871986 -35.32056571 131.82931108 -35.37719727 127.19970703 C-35.43150349 122.7322665 -35.46141753 118.26526861 -35.47438622 113.7975235 C-35.48362867 112.09261353 -35.50167732 110.38772793 -35.52865028 108.68300629 C-35.5649241 106.29562441 -35.56994634 103.91007382 -35.56762695 101.52246094 C-35.58560333 100.81683517 -35.60357971 100.11120941 -35.62210083 99.38420105 C-35.58337808 95.70315724 -35.22123872 94.24005725 -32.69108582 91.49468994 C-30 90 -30 90 -26.375 90.5625 C-21.66426013 92.56892624 -21.66426013 92.56892624 -20 95 C-19.6986504 97.79212435 -19.57993801 100.36219986 -19.59594727 103.15576172 C-19.58908401 103.9869754 -19.58222076 104.81818909 -19.57514954 105.67459106 C-19.55682613 108.42646294 -19.5607274 111.17776761 -19.56640625 113.9296875 C-19.56184655 115.8415648 -19.55654161 117.75344046 -19.55052185 119.66531372 C-19.54157945 123.67521821 -19.54402605 127.68492368 -19.55395508 131.69482422 C-19.56543619 136.83206129 -19.54525219 141.96861013 -19.51603794 147.10575676 C-19.49768369 151.05547447 -19.49796703 155.00502711 -19.50367546 158.95477676 C-19.50382882 160.84859303 -19.49777209 162.74242038 -19.48538399 164.63619614 C-19.47049331 167.28638468 -19.48113707 169.93530029 -19.49829102 172.58544922 C-19.48862305 173.36692322 -19.47895508 174.14839722 -19.46899414 174.95355225 C-19.5178455 178.56074841 -19.90732121 180.83843018 -21.71434021 183.98866272 C-24.41604433 186.36611112 -25.5208774 186.6176272 -29.07226562 186.59594727 C-30.08011108 186.6026796 -31.08795654 186.60941193 -32.12634277 186.61634827 C-33.20871216 186.5998674 -34.29108154 186.58338654 -35.40625 186.56640625 C-36.52310181 186.57204086 -37.63995361 186.57767548 -38.79064941 186.58348083 C-42.36085836 186.59995877 -45.92983351 186.58436012 -49.5 186.5625 C-53.07005084 186.54592528 -56.63928755 186.53678243 -60.20935059 186.55223083 C-62.43078861 186.56153523 -64.65239784 186.55226645 -66.87365723 186.52259827 C-67.88150269 186.52617844 -68.88934814 186.52975861 -69.92773438 186.53344727 C-71.25532776 186.5241494 -71.25532776 186.5241494 -72.60974121 186.5146637 C-75.89484679 187.18169649 -77.05702537 188.29176859 -79 191 C-79.52297994 194.80267225 -79.39152562 196.44930986 -77.1426754 199.61237144 C-76.26554705 200.49176195 -75.38841869 201.37115246 -74.48471069 202.27719116 C-73.9989178 202.77234399 -73.51312492 203.26749683 -73.01261103 203.77765429 C-71.38227067 205.43191335 -69.73133537 207.0639113 -68.07958984 208.69677734 C-66.90582431 209.87867358 -65.73333892 211.06184232 -64.56204224 212.2461853 C-61.37736245 215.45823329 -58.17397525 218.65099366 -54.96609831 221.83985472 C-51.61267026 225.17810069 -48.27389672 228.53095123 -44.93276978 231.88150024 C-39.31928708 237.50590133 -33.69326599 243.11752749 -28.06005859 248.72216797 C-21.54585444 255.20371823 -15.05354801 261.70660146 -8.57219541 268.22098958 C-3.00864982 273.81175574 2.56649448 279.39075309 8.15151441 284.96006739 C11.48797524 288.28717006 14.8202402 291.61820307 18.14210892 294.95988083 C21.2657123 298.10080595 24.40360856 301.22670949 27.55318069 304.34158707 C28.70725252 305.4877196 29.85623824 306.63899949 30.99971771 307.79570007 C32.5606284 309.37298677 34.13881369 310.93065803 35.72280884 312.48471069 C37.0418946 313.80040322 37.0418946 313.80040322 38.38762856 315.1426754 C41.58148911 317.41342284 43.1593728 317.60671512 47 317 C49.02085462 315.91103576 49.02085462 315.91103576 50.68238831 314.18452454 C51.36412676 313.5400065 52.04586521 312.89548847 52.74826241 312.23143959 C53.49133581 311.49506453 54.23440922 310.75868946 55 310 C55.8200395 309.203608 56.640079 308.407216 57.48496819 307.5866909 C60.37095614 304.76018376 63.22843928 301.90696206 66.08178711 299.04760742 C67.1747207 297.95603144 68.26786635 296.86466774 69.36120605 295.77349854 C72.30725065 292.83198221 75.2501605 289.88734881 78.1923492 286.94197631 C81.27732934 283.85445252 84.36476198 280.76938267 87.45179749 277.68391418 C92.62729703 272.51022885 97.80069545 267.33444955 102.97290039 262.1574707 C108.95599304 256.16891959 114.9427029 250.18400268 120.93127054 244.20092696 C126.07889221 239.05783718 131.22457034 233.91280898 136.36861616 228.76614267 C139.43872425 225.69447445 142.50950678 222.62348868 145.5820446 219.55425072 C148.46451609 216.67465962 151.34454613 213.79264912 154.22267914 210.90872192 C155.28084242 209.84923269 156.33986445 208.79060035 157.39978981 207.73287392 C158.84202804 206.29335316 160.28090654 204.85046864 161.71958923 203.40739441 C162.52682906 202.59977756 163.33406889 201.7921607 164.16577053 200.96007061 C166.68219173 198.27100508 166.97135668 197.31507651 167.3125 193.5625 C167.38743035 190.02030129 167.38743035 190.02030129 165.29174805 188.30039978 C162.62589568 186.7877231 161.06795189 186.62772307 158.01953125 186.63110352 C157.03170654 186.62422012 156.04388184 186.61733673 155.02612305 186.61024475 C153.96562744 186.61640305 152.90513184 186.62256134 151.8125 186.62890625 C149.56510261 186.61152808 147.31770681 186.59394366 145.0703125 186.57617188 C141.5282911 186.56608415 137.98637113 186.56250655 134.44433594 186.56420898 C131.02508166 186.56064627 127.60661464 186.53333311 124.1875 186.50390625 C123.12700439 186.51208878 122.06650879 186.5202713 120.97387695 186.52870178 C119.98605225 186.51866623 118.99822754 186.50863068 117.98046875 186.49829102 C116.67952271 186.49854027 116.67952271 186.49854027 115.35229492 186.49879456 C112.10296594 185.80978758 111.04900175 184.59569717 109 182 C108.50336456 178.95773315 108.50336456 178.95773315 108.50793457 175.31982422 C108.50325558 174.6495262 108.49857659 173.97922817 108.49375582 173.28861809 C108.48282664 171.04358286 108.50031081 168.79966963 108.51757812 166.5546875 C108.51539223 164.9448412 108.51139544 163.33499648 108.50572205 161.72515869 C108.49715513 158.25906735 108.50094337 154.79328558 108.5141449 151.32720947 C108.53446209 145.84808187 108.52451309 140.36926714 108.5098877 134.89013672 C108.48084 122.27061522 108.4915908 109.6511854 108.50258636 97.03164673 C108.51225519 85.46606008 108.51357744 73.90063601 108.48270559 62.33507729 C108.46931232 56.88676355 108.47531953 51.43891709 108.49607086 45.9906311 C108.50504246 42.60338658 108.49759593 39.21632313 108.48565865 35.82909393 C108.48352388 34.25690858 108.48827216 32.68469676 108.5003643 31.11255646 C108.51593141 28.96794027 108.50703564 26.82476435 108.49206543 24.68017578 C108.49357353 23.47966583 108.49508163 22.27915588 108.49663544 21.04226685 C107.89924089 17.38277442 106.91926402 16.21619449 104 14 C101.17508802 13.08044397 101.17508802 13.08044397 98 14 C91.51077452 18.73531258 85.95530017 24.92713894 80.3203125 30.6171875 C79.42633759 31.51494904 78.53236267 32.41271057 77.61129761 33.337677 C74.78008209 36.18102785 71.95205831 39.02751757 69.125 41.875 C65.38060559 45.64622689 61.63264673 49.4138674 57.8828125 53.1796875 C57.02140656 54.04939178 56.16000061 54.91909607 55.27249146 55.81515503 C54.47761322 56.61333649 53.68273499 57.41151794 52.86376953 58.23388672 C52.1639798 58.93891327 51.46419006 59.64393982 50.74319458 60.37033081 C48.57598945 62.39639691 47.30051022 62.94275996 44.375 63.5 C36.00208532 62.2595682 28.92696402 51.95763884 23.27734375 46.12890625 C21.42212883 44.23672979 19.56606549 42.34541958 17.70898438 40.45507812 C14.80723221 37.49931738 11.91105264 34.53863473 9.03295898 31.55981445 C7.14075194 29.60214428 5.2395871 27.65409607 3.32728577 25.71604919 C1.53467283 23.89907524 -0.24456666 22.0687859 -2.00856018 20.22401428 C-6.7019005 15.39964119 -6.7019005 15.39964119 -12.91186523 13.25366211 C-16.168522 14.04072826 -17.04406306 14.3934967 -19 17 C-19.4518672 19.40284414 -19.4518672 19.40284414 -19.38476562 22.12646484 C-19.39487671 23.17119965 -19.40498779 24.21593445 -19.41540527 25.29232788 C-19.41238403 26.42046906 -19.40936279 27.54861023 -19.40625 28.7109375 C-19.42250427 30.45136826 -19.42250427 30.45136826 -19.43908691 32.22695923 C-19.47342935 35.94302935 -19.488957 39.65879185 -19.5 43.375 C-19.51455189 48.25810934 -19.54822251 53.14052969 -19.59375 58.0234375 C-19.59072876 59.14753021 -19.58770752 60.27162292 -19.58459473 61.42977905 C-19.59470581 62.48081818 -19.60481689 63.5318573 -19.61523438 64.61474609 C-19.61728882 65.53613373 -19.61934326 66.45752136 -19.62145996 67.40682983 C-20.07946625 70.5443797 -21.15861031 72.43978035 -23 75 C-25.84083641 76.42041821 -27.85477278 76.31452272 -31 76 C-33.70229502 73.92316154 -34.86059614 72.72058599 -35.5146637 69.3396759 C-35.52396156 67.82152534 -35.52396156 67.82152534 -35.53344727 66.27270508 C-35.5492836 65.12083206 -35.56511993 63.96895905 -35.58143616 62.78218079 C-35.57647629 61.54050644 -35.57151642 60.29883209 -35.56640625 59.01953125 C-35.57260483 57.73696945 -35.57880341 56.45440765 -35.58518982 55.13298035 C-35.59559317 52.41684029 -35.59103955 49.701224 -35.57641602 46.98510742 C-35.55930612 43.52607417 -35.58262267 40.06871431 -35.61790562 36.60986805 C-35.64533964 33.28799535 -35.63513028 29.96651156 -35.62890625 26.64453125 C-35.64216446 25.41297806 -35.65542267 24.18142487 -35.66908264 22.91255188 C-35.58939464 15.48850472 -34.68130333 9.93310375 -30 4 C-21.49066893 -3.99970904 -10.37693916 -4.94226803 0 0 Z " fill="#010000" transform="translate(125,179)"/>
<path d="M0 0 C3.24526404 2.55909021 4.81577826 4.06239947 5.62247658 8.16810799 C5.6213455 9.36899496 5.62021442 10.56988194 5.61904907 11.80715942 C5.62528805 12.47901744 5.63152703 13.15087545 5.63795507 13.8430928 C5.65284142 16.08756925 5.63225336 18.33029541 5.61181641 20.57470703 C5.6153583 22.18632625 5.62113669 23.79794188 5.62898254 25.4095459 C5.64115547 28.87622811 5.63770203 32.34241813 5.62215042 35.80908585 C5.59784459 41.28805689 5.60932321 46.76659635 5.62582397 52.24557495 C5.65031479 61.89465334 5.64451702 71.54353545 5.63201904 81.19262695 C5.61342783 95.72833319 5.6182331 110.26400286 5.65205324 124.79968154 C5.66358666 130.24905539 5.65910262 135.69811612 5.64203286 141.14747262 C5.63415221 144.53244879 5.6383753 147.91733317 5.64574242 151.30230713 C5.6465547 152.87491335 5.64217721 154.44753186 5.63229942 156.02010727 C5.61948993 158.16260806 5.62492559 160.30431021 5.63491821 162.44680786 C5.63303308 163.64694078 5.63114796 164.84707371 5.6292057 166.0835743 C5.75936078 168.9917102 5.75936078 168.9917102 7.38373566 170.88633633 C9.61034076 172.42054652 11.15880916 172.37188473 13.85107422 172.36889648 C14.83574677 172.37577988 15.82041931 172.38266327 16.83493042 172.38975525 C17.89745026 172.38359695 18.95997009 172.37743866 20.0546875 172.37109375 C22.30078277 172.38847704 24.54687648 172.40606142 26.79296875 172.42382812 C30.33710591 172.43390368 33.88114208 172.43749704 37.42529297 172.43579102 C40.84373197 172.43935932 44.26138769 172.4666996 47.6796875 172.49609375 C48.73815887 172.48791122 49.79663025 172.4797287 50.88717651 172.47129822 C58.21431951 172.54549968 58.21431951 172.54549968 62.16064453 174.82836914 C64 177 64 177 64.75 180.25 C63.65608952 185.71955239 60.89961973 188.1361566 57 192 C55.73109673 193.2805824 54.46293434 194.56189913 53.1953125 195.84375 C49.48422417 199.58353117 45.74887121 203.29812525 42 207 C41.34 206.01 40.68 205.02 40 204 C37.57561155 200.68666912 35.87639174 198.42252908 32 197 C29.29584325 196.78715693 26.6856951 196.6754159 23.98046875 196.65625 C22.81527458 196.6343158 22.81527458 196.6343158 21.62654114 196.61193848 C19.14691291 196.5655371 16.66736198 196.53130227 14.1875 196.5 C10.93070374 196.45862567 7.67444852 196.40482595 4.41796875 196.34375 C3.67918991 196.3384729 2.94041107 196.3331958 2.179245 196.32775879 C-3.1668497 196.22636845 -8.68745777 195.911763 -12.9609375 192.37890625 C-13.42757812 191.77949219 -13.89421875 191.18007813 -14.375 190.5625 C-15.09816406 189.66724609 -15.09816406 189.66724609 -15.8359375 188.75390625 C-18.18611623 185.21286515 -18.1265995 182.07231396 -18.13130188 177.94706726 C-18.13531006 176.68107697 -18.13931824 175.41508667 -18.14344788 174.11073303 C-18.14297278 172.70492552 -18.14243667 171.29911802 -18.1418457 169.89331055 C-18.14487734 168.41493628 -18.14839881 166.93656295 -18.15237427 165.45819092 C-18.16026349 162.27266524 -18.16540828 159.08715076 -18.16866493 155.90161705 C-18.17457488 150.86315356 -18.19111523 145.82476071 -18.21000671 140.78633118 C-18.21634412 139.06136231 -18.22266975 137.3363934 -18.22898388 135.61142445 C-18.23214969 134.74754065 -18.2353155 133.88365686 -18.23857725 132.99359477 C-18.28065313 121.26307635 -18.31362916 109.53259081 -18.32592773 97.80200195 C-18.33430799 89.89007926 -18.35679722 81.97833142 -18.3952834 74.06649619 C-18.41504523 69.88001651 -18.42744826 65.69379822 -18.42244911 61.50726891 C-18.41780263 57.56810882 -18.43160754 53.62944414 -18.45946121 49.69038391 C-18.46637303 48.24645425 -18.46649959 46.80247336 -18.45926094 45.3585453 C-18.45036207 43.38365531 -18.46842802 41.40869921 -18.48774719 39.43388367 C-18.49013555 38.32978496 -18.4925239 37.22568624 -18.49498463 36.08813 C-19.21714322 31.67218599 -21.31168301 28.44823522 -24.703125 25.5390625 C-25.21359375 25.23742187 -25.7240625 24.93578125 -26.25 24.625 C-27.1575 24.08875 -28.065 23.5525 -29 23 C-24.64199371 17.78934031 -20.06625699 12.91287041 -15.25 8.125 C-14.57839844 7.44953125 -13.90679687 6.7740625 -13.21484375 6.078125 C-12.57160156 5.43617188 -11.92835938 4.79421875 -11.265625 4.1328125 C-10.68586914 3.55418457 -10.10611328 2.97555664 -9.50878906 2.37939453 C-6.48545708 -0.38465494 -4.0019822 -0.47082144 0 0 Z " fill="#FA6E37" transform="translate(229,192)"/>
<path d="M0 0 C5.79153755 2.47544204 9.84191237 7.3913027 14.25 11.75 C15.18585938 12.64460938 16.12171875 13.53921875 17.0859375 14.4609375 C17.97023438 15.33492187 18.85453125 16.20890625 19.765625 17.109375 C20.57805664 17.90311523 21.39048828 18.69685547 22.22753906 19.51464844 C24 22 24 22 24.57714844 24.99316406 C24 28 24 28 22.22119141 30.83740234 C17.41885591 34.06152602 13.12290034 33.67149586 7.4609375 33.6015625 C5.7842247 33.61357193 5.7842247 33.61357193 4.07363892 33.62582397 C0.50705629 33.64889726 -3.05838648 33.63942027 -6.625 33.625 C-10.19854036 33.62115852 -13.77157889 33.62452838 -17.34506226 33.64559937 C-19.56754532 33.65773422 -21.79016922 33.65494533 -24.01260376 33.63589478 C-25.51964371 33.64137833 -25.51964371 33.64137833 -27.05712891 33.64697266 C-27.94139557 33.64299469 -28.82566223 33.63901672 -29.73672485 33.63491821 C-32.60496528 34.09758504 -33.28863055 34.66320979 -35 37 C-35.45084133 40.02759826 -35.45084133 40.02759826 -35.37181091 43.55319214 C-35.37563548 44.22193017 -35.37946004 44.8906682 -35.3834005 45.57967103 C-35.39270211 47.82529764 -35.38068421 50.07031036 -35.36889648 52.31591797 C-35.37136384 53.92399349 -35.37520158 55.53206742 -35.38031006 57.14013672 C-35.38865657 60.60564395 -35.38783329 64.07098691 -35.38012505 67.53649521 C-35.36855875 73.0157916 -35.38069079 78.49487591 -35.39674377 83.97415161 C-35.43296749 97.58521237 -35.43916748 111.19626849 -35.43664551 124.80737305 C-35.43493511 135.38171035 -35.44203529 145.95587497 -35.47662407 156.53016388 C-35.49343482 161.97733842 -35.49160886 167.42409221 -35.47580135 172.87126517 C-35.47000839 176.26075704 -35.48073744 179.650049 -35.49604797 183.039505 C-35.49977745 184.61126229 -35.49665672 186.18305304 -35.48617744 187.75477982 C-35.47281962 189.90130606 -35.48400275 192.04637308 -35.50120544 194.19284058 C-35.50099616 195.39372755 -35.50078688 196.59461452 -35.50057125 197.83189201 C-36.10335908 201.65565454 -37.23802175 203.32518114 -40 206 C-43.40649414 206.61328125 -43.40649414 206.61328125 -47 206 C-49.81420898 203.98046875 -49.81420898 203.98046875 -52.49609375 201.1875 C-53.21370628 200.45503052 -53.21370628 200.45503052 -53.94581604 199.70776367 C-55.46035831 198.15423743 -56.94866559 196.5781404 -58.4375 195 C-59.46385204 193.93851333 -60.49183201 192.87859813 -61.52148438 191.8203125 C-64.03342412 189.2314653 -66.52241641 186.62179499 -69 184 C-67.17932146 182.16339715 -65.33552809 180.38414798 -63.4375 178.625 C-59.39155996 174.26783381 -58.75022498 170.55338954 -58.7484436 164.70655823 C-58.74306076 163.4378186 -58.73767792 162.16907898 -58.73213196 160.8618927 C-58.7361458 159.46334794 -58.74031671 158.06480363 -58.74462891 156.66625977 C-58.74187771 155.18758959 -58.73819702 153.70892089 -58.73365784 152.23025513 C-58.72555585 149.05020208 -58.72337484 145.8702193 -58.72560501 142.69015694 C-58.72844097 137.65991103 -58.71407586 132.62980524 -58.69662476 127.59959412 C-58.64962395 113.2971303 -58.62565538 98.9946763 -58.61914062 84.69213867 C-58.6153892 76.78973531 -58.59735465 68.8874908 -58.56404626 60.98515552 C-58.54383859 55.98652095 -58.54145858 50.98829624 -58.55232644 45.98963749 C-58.55493556 42.87759073 -58.54092011 39.76578212 -58.52224541 36.65379715 C-58.51692805 35.2130832 -58.51841249 33.77232527 -58.52728081 32.3316288 C-58.53842946 30.36124586 -58.52260354 28.39076586 -58.50552368 26.42042542 C-58.50443415 25.31892434 -58.50334461 24.21742327 -58.50222206 23.08254337 C-57.64070654 17.79472514 -55.04367952 14.76901861 -50.81054688 11.64990234 C-46.60130346 9.48895426 -42.68066627 9.49866751 -38.03125 9.6015625 C-36.30859238 9.59682811 -34.58593605 9.59160492 -32.86328125 9.5859375 C-30.17733657 9.60067654 -27.49190954 9.62510559 -24.80615234 9.66015625 C-22.19305464 9.68692294 -19.58190826 9.67720293 -16.96875 9.6640625 C-16.17376099 9.68570465 -15.37877197 9.7073468 -14.55969238 9.72964478 C-9.10524835 9.68172373 -6.30795479 8.28197786 -2.31359863 4.5821228 C-0.77170556 2.9196433 -0.77170556 2.9196433 0 0 Z " fill="#2DAFFE" transform="translate(443,114)"/>
</svg>
